<svg id="Capa_1" enable-background="new 0 0 512 512" height="512" viewBox="0 0 512 512" width="512" xmlns="http://www.w3.org/2000/svg"><g><g><g><g><path d="m386.002 512h45c8.284 0 15-6.716 15-15v-77c0-40.143-24.904-74.549-60-88.437l-125 20.437-125-20.437c-35.096 13.888-60 48.294-60 88.437v77c0 8.284 6.716 15 15 15h45l125-20z" fill="#a65d4e"/></g><path d="m386.002 512h45c8.284 0 15-6.716 15-15v-77c0-40.143-24.904-74.549-60-88.437l-125 20.437v140z" fill="#784033"/><path d="m351.472 325h-180.941c-12.18 0-23.828 2.328-34.529 6.563v180.437h250v-180.437c-10.702-4.235-22.35-6.563-34.53-6.563z" fill="#ff6b6b"/><path d="m261.002 325v187h125v-180.437c-10.702-4.235-22.35-6.563-34.53-6.563z" fill="#e20059"/></g><path d="m261.002 395c-22.091 0-40-17.909-40-40v-90h80v90c0 22.091-17.909 40-40 40z" fill="#784033"/><path d="m261.002 395c22.091 0 40-17.909 40-40v-90h-40z" fill="#61362b"/><g><path d="m161.002 150v60c0 55.228 44.771 100 100 100 55.228 0 100-44.771 100-100v-60z" fill="#a65d4e"/><path d="m261.002 310c55.229 0 100-44.771 100-100v-60h-100z" fill="#784033"/></g></g><path d="m81.013 180.003c-5.503.001-10.8-3.038-13.428-8.295-3.705-7.409-.701-16.42 6.708-20.124l33.168-16.584-33.167-16.584c-7.41-3.704-10.413-12.715-6.708-20.124 3.704-7.409 12.715-10.414 20.125-6.708l60 30c5.082 2.54 8.292 7.734 8.292 13.416s-3.21 10.876-8.292 13.416l-60 30c-2.154 1.077-4.444 1.587-6.698 1.587z" fill="#e1ebf0"/><path d="m361.002 120h-200v-20c0-55.141 44.86-100 100-100s100 44.859 100 100z" fill="#453d81"/><path d="m361.002 120v-20c0-55.141-44.86-100-100-100v120z" fill="#2e2654"/><path d="m201.002 165h60l22.213-10 20.213 10h62.574c16.569 0 30-13.431 30-30s-13.431-30-30-30h-2.574l-20.213 10-22.213-10h-60l-24.213 10-18.213-10h-62.574c-16.569 0-30 13.431-30 30s13.431 30 30 30h2.574l24.213-10z" fill="#fff5f5"/><path d="m283.215 155 20.213 10h62.574c16.569 0 30-13.431 30-30s-13.431-30-30-30h-2.574l-20.213 10-22.213-10h-60v60z" fill="#e1ebf0"/><path d="m321.002 105-60 60h42.425l60-60z" fill="#e20059"/><path d="m218.576 105-60 60h42.426l60-60z" fill="#ff6b6b"/></g></svg>